<svg width="25" height="25" viewBox="0 0 25 25" 
     preserveAspectRatio="xMidYMid meet" 
     fill="none" xmlns="http://www.w3.org/2000/svg">
<path d="M19.1964 19.7546H5.80357C5.49665 19.7546 5.24554 19.5034 5.24554 19.1965C5.24554 18.8896 5.49665 18.6385 5.80357 18.6385H19.1964C19.5033 18.6385 19.7544 18.8896 19.7544 19.1965C19.7544 19.5034 19.5033 19.7546 19.1964 19.7546ZM19.1964 17.5224H5.80357C5.49665 17.5224 5.24554 17.2713 5.24554 16.9644V14.1742C5.24554 13.2534 5.99889 12.5001 6.91964 12.5001H10.4911C10.3795 11.8304 10.0446 11.1887 9.57029 10.631C8.92857 9.90521 8.59375 8.98452 8.59375 8.03579C8.59375 6.97554 9.01228 5.97108 9.79353 5.21774C10.5748 4.46438 11.5792 4.10166 12.6674 4.12956C14.6764 4.21322 16.3783 5.94318 16.4062 7.95236C16.4341 8.95681 16.0435 9.93344 15.3739 10.6865C14.8996 11.1887 14.6206 11.8026 14.5089 12.5001H18.0804C19.0011 12.5001 19.7544 13.2534 19.7544 14.1742V16.9644C19.7544 17.2713 19.5033 17.5224 19.1964 17.5224ZM6.36161 16.4063H18.6384V14.1742C18.6384 13.8673 18.3873 13.6162 18.0804 13.6162H13.8951C13.5882 13.6162 13.3371 13.3651 13.3371 13.0581C13.3371 11.886 13.7556 10.7698 14.5368 9.93344C15.0391 9.40316 15.29 8.70513 15.29 7.98027C15.2621 6.52902 14.0624 5.30156 12.6116 5.24571C11.8304 5.21774 11.1049 5.49675 10.5748 6.02703C10.0167 6.55731 9.70982 7.28272 9.70982 8.03579C9.70982 8.70513 9.96093 9.37447 10.4074 9.87693C11.2165 10.8 11.6629 11.914 11.6629 13.0581C11.6629 13.3651 11.4118 13.6162 11.1049 13.6162H6.91964C6.61272 13.6162 6.36161 13.8673 6.36161 14.1742V16.4063Z" fill="white"/>
</svg>
