<svg width="35" height="35" viewBox="0 0 35 35" fill="none" xmlns="http://www.w3.org/2000/svg">

<path d="M26.875 27.6564H8.125C7.69531 27.6564 7.34375 27.3048 7.34375 26.8751C7.34375 26.4455 7.69531 26.0939 8.125 26.0939H26.875C27.3047 26.0939 27.6562 26.4455 27.6562 26.8751C27.6562 27.3048 27.3047 27.6564 26.875 27.6564ZM26.875 24.5314H8.125C7.69531 24.5314 7.34375 24.1798 7.34375 23.7501V19.8439C7.34375 18.5548 8.39844 17.5001 9.6875 17.5001H14.6875C14.5312 16.5626 14.0625 15.6642 13.3984 14.883C12.5 13.8673 12.0312 12.5783 12.0312 11.2501C12.0312 9.76576 12.6172 8.35951 13.7109 7.30483C14.8047 6.25014 16.2109 5.74233 17.7344 5.78139C20.5469 5.89858 22.9297 8.32045 22.9688 11.133C23.0078 12.5392 22.4609 13.9064 21.5234 14.9611C20.8594 15.6642 20.4688 16.5236 20.3125 17.5001H25.3125C26.6016 17.5001 27.6562 18.5548 27.6562 19.8439V23.7501C27.6562 24.1798 27.3047 24.5314 26.875 24.5314ZM8.90625 22.9689H26.0938V19.8439C26.0938 19.4142 25.7422 19.0626 25.3125 19.0626H19.4531C19.0234 19.0626 18.6719 18.7111 18.6719 18.2814C18.6719 16.6408 19.2578 15.0783 20.3516 13.9064C21.0547 13.1642 21.4062 12.1876 21.4062 11.172C21.3672 9.14076 19.6875 7.42201 17.6563 7.34389C16.5625 7.30483 15.5469 7.69545 14.8047 8.43764C14.0234 9.17983 13.5938 10.1955 13.5938 11.2501C13.5938 12.1876 13.9453 13.1251 14.5703 13.8283C15.7031 15.1173 16.3281 16.6798 16.3281 18.2814C16.3281 18.7111 15.9766 19.0626 15.5469 19.0626H9.6875C9.25781 19.0626 8.90625 19.4142 8.90625 19.8439V22.9689Z" fill="black"/>
</svg>
