<svg width="25" height="25" viewBox="0 0 25 25" fill="none" xmlns="http://www.w3.org/2000/svg">
<g clip-path="url(#clip0_748_35)">
<path d="M7 21.5C7 23.433 5.433 25 3.5 25C1.567 25 0 23.433 0 21.5C0 19.567 1.567 18 3.5 18C5.433 18 7 19.567 7 21.5ZM1.28341 21.5C1.28341 22.7242 2.27581 23.7166 3.5 23.7166C4.72419 23.7166 5.71659 22.7242 5.71659 21.5C5.71659 20.2758 4.72419 19.2834 3.5 19.2834C2.27581 19.2834 1.28341 20.2758 1.28341 21.5Z" fill="black"/>
<path d="M25 3.5C25 5.433 23.433 7 21.5 7C19.567 7 18 5.433 18 3.5C18 1.567 19.567 0 21.5 0C23.433 0 25 1.567 25 3.5ZM19.2834 3.5C19.2834 4.72419 20.2758 5.71659 21.5 5.71659C22.7242 5.71659 23.7166 4.72419 23.7166 3.5C23.7166 2.27581 22.7242 1.28341 21.5 1.28341C20.2758 1.28341 19.2834 2.27581 19.2834 3.5Z" fill="black"/>
<path d="M5 19C5 7 20 18.5 20 6" stroke="black" stroke-width="1.5"/>
</g>
<defs>
<clipPath id="clip0_748_35">
<rect width="25" height="25" fill="white"/>
</clipPath>
</defs>
</svg>
