<svg width="25" height="25" viewBox="0 0 25 25" fill="none" xmlns="http://www.w3.org/2000/svg">
<g clip-path="url(#clip0_747_26)">
<path d="M15.1395 13.1828H9.86094C9.48394 13.1828 9.17822 12.8772 9.17822 12.5001C9.17822 12.123 9.48394 11.8174 9.86094 11.8174H15.1395C15.5165 11.8174 15.8222 12.123 15.8222 12.5001C15.8221 12.8772 15.5164 13.1828 15.1395 13.1828Z" fill="black"/>
<path d="M19.0796 12.4999L15.3975 16.0827V20.0496C15.3975 20.5317 15.9794 20.774 16.3216 20.4345L24.3174 12.4998L16.3216 4.56517C15.9794 4.22562 15.3975 4.46796 15.3975 4.94999V8.91694L19.0796 12.4999Z" fill="white"/>
<path d="M24.7984 12.0153L16.8026 4.08062C16.5709 3.85068 16.2659 3.72412 15.9437 3.72412C15.2661 3.72412 14.7149 4.27412 14.7149 4.9501V8.91705C14.7149 9.10138 14.7895 9.27784 14.9215 9.40636L18.1007 12.4999L15.2694 15.2549H12.8209C12.4439 15.2549 12.1382 15.5606 12.1382 15.9376C12.1382 16.3147 12.4439 16.6203 12.8209 16.6203H14.7148V20.0497C14.7148 20.7257 15.2661 21.2757 15.9436 21.2757H15.9436C16.2658 21.2757 16.5709 21.1492 16.8025 20.9192L24.7983 12.9845C24.9275 12.8564 25.0001 12.6819 25.0001 12.5C25.0002 12.318 24.9276 12.1435 24.7984 12.0153ZM16.0803 19.7123V16.371L19.5558 12.9891C19.6879 12.8607 19.7624 12.6841 19.7624 12.4998C19.7624 12.3155 19.6879 12.139 19.5558 12.0105L16.0803 8.62867V5.28741L23.3484 12.4999L16.0803 19.7123Z" fill="black"/>
<path d="M5.92037 12.4999L9.60251 16.0827V20.0496C9.60251 20.5317 9.02057 20.774 8.67838 20.4345L0.682617 12.4999L8.67838 4.56517C9.02057 4.22562 9.60251 4.46796 9.60251 4.94999V8.91694L5.92037 12.4999Z" fill="white"/>
<path d="M12.1328 8.3796H10.2853V4.9501C10.2853 4.27407 9.7341 3.72412 9.05651 3.72412C8.73429 3.72412 8.42926 3.85068 8.19762 4.08062L0.201807 12.0154C0.0726564 12.1435 0 12.3179 0 12.5C0 12.682 0.0726564 12.8564 0.201807 12.9845L8.19762 20.9192C8.42931 21.1492 8.73429 21.2757 9.05651 21.2757C9.7341 21.2757 10.2853 20.7257 10.2853 20.0497V16.0828C10.2853 15.8985 10.2108 15.722 10.0787 15.5935L6.89953 12.5L9.73083 9.74498H12.1328C12.5098 9.74498 12.8155 9.43932 12.8155 9.06227C12.8155 8.68526 12.5097 8.3796 12.1328 8.3796ZM8.91989 8.62887L5.4444 12.0107C5.31231 12.1392 5.2378 12.3157 5.2378 12.5C5.2378 12.6843 5.31236 12.8608 5.4444 12.9893L8.91989 16.3712V19.7125L1.65186 12.5L8.91989 5.2875V8.62887Z" fill="black"/>
</g>
<defs>
<clipPath id="clip0_747_26">
<rect width="25" height="25" fill="white"/>
</clipPath>
</defs>
</svg>
