<svg width="25" height="25" viewBox="0 0 25 25" fill="none" xmlns="http://www.w3.org/2000/svg">
<g clip-path="url(#clip0_725_2379)">
<path fill-rule="evenodd" clip-rule="evenodd" d="M12.5002 17.8574C15.4589 17.8574 17.8574 15.4589 17.8574 12.5002C17.8574 9.54155 15.4589 7.14307 12.5002 7.14307C9.54155 7.14307 7.14307 9.54155 7.14307 12.5002C7.14307 15.4589 9.54155 17.8574 12.5002 17.8574ZM16.0716 12.5002C16.0716 14.4726 14.4726 16.0716 12.5002 16.0716C10.5278 16.0716 8.92878 14.4726 8.92878 12.5002C8.92878 10.5278 10.5278 8.92878 12.5002 8.92878C14.4726 8.92878 16.0716 10.5278 16.0716 12.5002Z" fill="white"/>
<path fill-rule="evenodd" clip-rule="evenodd" d="M0 11.6068V13.3925C0 14.7748 1.04697 15.9125 2.39115 16.0559C2.50525 16.3803 2.63448 16.6974 2.77797 17.0065C1.89718 18.0589 1.95121 19.6286 2.9401 20.6175L4.20279 21.8802C5.16916 22.8465 6.69022 22.9202 7.7411 22.101C8.12893 22.2936 8.53021 22.4634 8.94312 22.6087C9.08652 23.9529 10.2242 25 11.6065 25H13.3922C14.7742 25 15.9117 23.9535 16.0554 22.6096C16.4307 22.4777 16.7963 22.3255 17.151 22.1544C18.1985 22.9164 19.6736 22.825 20.6184 21.8802L21.8811 20.6175C22.8259 19.6727 22.9173 18.1976 22.1554 17.1501C22.3262 16.7958 22.4783 16.4306 22.6102 16.0557C23.9538 15.9117 25 14.7743 25 13.3925V11.6068C25 10.225 23.9538 9.08768 22.6102 8.94366C22.4647 8.53013 22.2947 8.12834 22.1019 7.74003C22.9204 6.68919 22.8466 5.16864 21.8804 4.20251L20.6178 2.93981C19.6291 1.95117 18.0599 1.89692 17.0076 2.77705C16.6979 2.63335 16.3803 2.50394 16.0554 2.38971C15.9113 1.04622 14.7739 0 13.3922 0H11.6065C10.2245 0 9.08687 1.04671 8.94321 2.39062C8.57838 2.51902 8.22264 2.66654 7.87724 2.83197C6.82539 1.8951 5.21218 1.93104 4.20341 2.93981L2.94071 4.2025C1.93194 5.21129 1.896 6.82451 2.8329 7.87636C2.66729 8.22212 2.51963 8.57824 2.39115 8.94348C1.04697 9.08687 0 10.2246 0 11.6068ZM14.2851 2.67857C14.2851 2.18546 13.8854 1.78571 13.3922 1.78571H11.6065C11.1134 1.78571 10.7137 2.18546 10.7137 2.67857V3.02026C10.7137 3.44485 10.413 3.80604 10.0053 3.92448C9.37196 4.10846 8.76762 4.36072 8.20085 4.67275C7.82889 4.87752 7.36094 4.83465 7.06071 4.53442L6.72879 4.20251C6.38011 3.85382 5.81479 3.85382 5.4661 4.2025L4.20341 5.4652C3.85472 5.81387 3.85472 6.37921 4.20341 6.72788L4.53534 7.05981C4.83557 7.36004 4.87844 7.828 4.67367 8.19996C4.36147 8.76705 4.10911 9.3717 3.9251 10.0054C3.8067 10.4133 3.44548 10.7139 3.02084 10.7139H2.67857C2.18546 10.7139 1.78571 11.1138 1.78571 11.6068V13.3925C1.78571 13.8856 2.18546 14.2854 2.67857 14.2854H3.02084C3.44548 14.2854 3.80669 14.5861 3.9251 14.9938C4.0978 15.5887 4.33073 16.1579 4.61683 16.6946C4.8143 17.0649 4.76871 17.5262 4.47192 17.8229L4.20279 18.0921C3.85411 18.4408 3.85411 19.0061 4.20279 19.3548L5.46548 20.6175C5.81416 20.9662 6.37949 20.9662 6.72817 20.6175L6.94542 20.4003C7.2491 20.0965 7.72371 20.0565 8.09713 20.2686C8.69371 20.6075 9.33313 20.8796 10.0053 21.0749C10.413 21.1933 10.7137 21.5546 10.7137 21.9791V22.3214C10.7137 22.8146 11.1134 23.2143 11.6065 23.2143H13.3922C13.8854 23.2143 14.2851 22.8146 14.2851 22.3214V21.9798C14.2851 21.5552 14.5858 21.1939 14.9937 21.0755C15.6279 20.8915 16.2329 20.639 16.8004 20.3266C17.1723 20.1219 17.6403 20.1647 17.9405 20.465L18.093 20.6175C18.4417 20.9662 19.0071 20.9662 19.3557 20.6175L20.6184 19.3548C20.9671 19.0061 20.9671 18.4408 20.6184 18.0921L20.4659 17.9396C20.1656 17.6394 20.1228 17.1714 20.3276 16.7995C20.6398 16.2323 20.8921 15.6277 21.0762 14.9938C21.1946 14.5861 21.5558 14.2854 21.9804 14.2854H22.3214C22.8146 14.2854 23.2143 13.8856 23.2143 13.3925V11.6068C23.2143 11.1138 22.8146 10.7139 22.3214 10.7139H21.9804C21.5558 10.7139 21.1946 10.4133 21.0762 10.0054C20.8809 9.33295 20.6087 8.6931 20.2696 8.09619C20.0574 7.72276 20.0975 7.24815 20.4012 6.94447L20.6178 6.72788C20.9664 6.37921 20.9664 5.81387 20.6178 5.4652L19.3551 4.2025C19.0064 3.85382 18.4411 3.85382 18.0924 4.2025L17.8239 4.47096C17.5271 4.76775 17.0658 4.81336 16.6954 4.61588C16.1586 4.3296 15.5889 4.09656 14.9937 3.92381C14.5858 3.80545 14.2851 3.44421 14.2851 3.01953V2.67857Z" fill="white"/>
</g>
<defs>
<clipPath id="clip0_725_2379">
<rect width="25" height="25" fill="white"/>
</clipPath>
</defs>
</svg>
