<svg width="25" height="25" viewBox="0 0 25 25" fill="none" xmlns="http://www.w3.org/2000/svg">
<path d="M24.7706 12.0306L20.1873 8.45919C19.9993 8.3128 19.7424 8.29254 19.5337 8.40757C19.3252 8.52261 19.2054 8.75098 19.2291 8.98795L19.4017 10.7145H16.369V9.22637C16.369 8.89766 16.1025 8.63116 15.7738 8.63116H9.22617C8.89746 8.63116 8.63096 8.89766 8.63096 9.22637V10.7145H5.59824L5.77085 8.98795C5.79453 8.75098 5.67471 8.52266 5.46621 8.40757C5.25772 8.29254 5.00068 8.3128 4.8127 8.45919L0.229346 12.0306C0.0846191 12.1434 0 12.3166 0 12.5002C0 12.6837 0.0846191 12.8569 0.229395 12.9697L4.81274 16.5411C4.91958 16.6243 5.04873 16.6669 5.17861 16.6669C5.2772 16.6669 5.37617 16.6424 5.46616 16.5927C5.67466 16.4777 5.79458 16.2494 5.7708 16.0124L5.59819 14.2858H8.63091V15.7739C8.63091 16.1026 8.89746 16.3691 9.22612 16.3691H15.7737C16.1024 16.3691 16.3689 16.1026 16.3689 15.7739V14.2858H19.4017L19.2291 16.0124C19.2054 16.2493 19.3252 16.4776 19.5337 16.5927C19.6237 16.6424 19.7227 16.6669 19.8212 16.6669C19.9512 16.6669 20.0803 16.6244 20.1871 16.5411L24.7705 12.9697C24.9152 12.8569 24.9999 12.6837 24.9999 12.5002C25 12.3166 24.9154 12.1434 24.7706 12.0306ZM8.63096 13.0954H4.94048C4.77231 13.0954 4.61196 13.1665 4.49917 13.2912C4.38633 13.4159 4.33149 13.5825 4.34824 13.7499L4.448 14.7477L1.56367 12.5002L4.44795 10.2526L4.34819 11.2504C4.33145 11.4178 4.38628 11.5844 4.49912 11.7091C4.61191 11.8337 4.77227 11.9049 4.94043 11.9049H8.63091L8.63096 13.0954ZM15.1786 15.1787H9.82144V9.82159H15.1786V15.1787ZM20.552 14.7477L20.6518 13.7498C20.6685 13.5824 20.6137 13.4159 20.5008 13.2912C20.388 13.1665 20.2277 13.0953 20.0595 13.0953H16.369V11.9048H20.0595C20.2277 11.9048 20.388 11.8337 20.5008 11.709C20.6137 11.5843 20.6685 11.4177 20.6518 11.2503L20.552 10.2525L23.4363 12.5002L20.552 14.7477Z" fill="black"/>
</svg>
