<svg width="35" height="35" viewBox="0 0 35 35" fill="none" xmlns="http://www.w3.org/2000/svg">
<rect x="0.5" y="0.5" width="34" height="34" rx="9.5" fill="#F6F2FF" stroke="white"/>
<path d="M21.0123 24.2291L19.2858 24.4017V21.369H20.7739C21.1027 21.369 21.3691 21.1025 21.3691 20.7738V14.2262C21.3691 13.8974 21.1026 13.6309 20.7739 13.6309H19.2858V10.5982L21.0123 10.7708C21.2493 10.7948 21.4776 10.6747 21.5927 10.4662C21.7078 10.2577 21.6875 10.0006 21.5411 9.81269L17.9696 5.22935C17.8568 5.08462 17.6836 5 17.5001 5C17.3166 5 17.1434 5.08462 17.0306 5.22939L13.4592 9.81273C13.3128 10.0006 13.2925 10.2577 13.4076 10.4662C13.5226 10.6747 13.7511 10.7946 13.9879 10.7709L15.7145 10.5982V13.6309H14.2264C13.8976 13.6309 13.6312 13.8974 13.6312 14.2262V20.7737C13.6312 21.1025 13.8977 21.369 14.2264 21.369H15.7145V24.4017L13.9879 24.2291C13.7513 24.2053 13.5227 24.3253 13.4076 24.5338C13.2925 24.7422 13.3128 24.9993 13.4592 25.1872L17.0306 29.7706C17.1434 29.9153 17.3167 30 17.5001 30C17.6836 30 17.8569 29.9153 17.9697 29.7706L21.5411 25.1872C21.6875 24.9994 21.7078 24.7423 21.5927 24.5338C21.4776 24.3253 21.2491 24.2051 21.0123 24.2291ZM15.2526 9.44799L17.5001 6.56372L19.7476 9.44804L18.7498 9.34828C18.5825 9.33163 18.4159 9.38637 18.2912 9.49921C18.1665 9.61195 18.0954 9.77231 18.0954 9.94047V13.6309H16.9049V9.94047C16.9049 9.77231 16.8337 9.61195 16.709 9.49911C16.5843 9.38627 16.4177 9.33163 16.2504 9.34819L15.2526 9.44799ZM14.8215 20.1785V14.8214H20.1787V20.1785H14.8215ZM17.5001 28.4363L15.2526 25.552L16.2504 25.6517C16.4178 25.6683 16.5844 25.6136 16.7091 25.5007C16.8338 25.3879 16.9049 25.2276 16.9049 25.0594V21.3689H18.0954V25.0594C18.0954 25.2275 18.1665 25.3879 18.2913 25.5007C18.416 25.6136 18.5826 25.6683 18.7499 25.6517L19.7477 25.552L17.5001 28.4363Z" fill="#505050"/>
</svg>
