<svg width="25" height="25" viewBox="0 0 25 25" fill="none" xmlns="http://www.w3.org/2000/svg">
<path d="M12.0306 0.229395L8.45919 4.81274C8.3128 5.00073 8.29254 5.25757 8.40757 5.46627C8.52261 5.67477 8.75098 5.79459 8.98795 5.77091L10.7145 5.59831V8.63103H9.22637C8.89766 8.63103 8.63116 8.89753 8.63116 9.22624V15.7738C8.63116 16.1026 8.89766 16.369 9.22637 16.369H10.7145V19.4018L8.98795 19.2292C8.75098 19.2055 8.52266 19.3253 8.40757 19.5338C8.29254 19.7423 8.3128 19.9993 8.45919 20.1873L12.0306 24.7707C12.1434 24.9154 12.3166 25 12.5002 25C12.6837 25 12.8569 24.9154 12.9697 24.7706L16.5411 20.1873C16.6243 20.0804 16.6669 19.9513 16.6669 19.8214C16.6669 19.7228 16.6424 19.6238 16.5927 19.5338C16.4777 19.3253 16.2494 19.2054 16.0124 19.2292L14.2858 19.4018V16.369H15.7739C16.1026 16.369 16.3691 16.1026 16.3691 15.7739V9.22629C16.3691 8.89758 16.1026 8.63108 15.7739 8.63108H14.2858V5.59831L16.0124 5.77091C16.2493 5.79459 16.4776 5.67477 16.5927 5.46627C16.6424 5.37628 16.6669 5.27731 16.6669 5.17872C16.6669 5.04884 16.6244 4.91969 16.5411 4.81285L12.9697 0.229395C12.8569 0.0846191 12.6837 0 12.5002 0C12.3166 0 12.1434 0.0846191 12.0306 0.229395ZM13.0954 16.369V20.0595C13.0954 20.2277 13.1665 20.388 13.2912 20.5008C13.4159 20.6137 13.5825 20.6685 13.7499 20.6518L14.7477 20.552L12.5002 23.4363L10.2526 20.5521L11.2504 20.6518C11.4178 20.6686 11.5844 20.6137 11.7091 20.5009C11.8337 20.3881 11.9049 20.2277 11.9049 20.0596V16.369H13.0954ZM15.1787 9.82141V15.1786H9.82159V9.82141H15.1787ZM14.7477 4.44799L13.7498 4.34823C13.5824 4.33149 13.4159 4.38632 13.2912 4.49916C13.1665 4.61195 13.0953 4.77231 13.0953 4.94047V8.63095H11.9048V4.94047C11.9048 4.77231 11.8337 4.61195 11.709 4.49916C11.5843 4.38632 11.4177 4.33149 11.2503 4.34823L10.2525 4.44799L12.5002 1.56367L14.7477 4.44799Z" fill="black"/>
</svg>
