<svg width="35" height="35" viewBox="0 0 35 35" fill="none" xmlns="http://www.w3.org/2000/svg">
<rect x="0.5" y="0.5" width="34" height="34" rx="9.5" fill="#F6F2FF" stroke="#8B5FFF"/>
<g clip-path="url(#clip0_968_13)">
<path d="M26.7453 17.0722C25.5021 17.0722 24.4907 17.9493 24.4907 19.0273C24.4907 22.3701 21.3547 25.0896 17.4999 25.0896C13.6452 25.0896 10.5093 22.3701 10.5093 19.0273C10.5093 16.6994 12.0604 14.5859 14.4388 13.5782V14.3443C14.4388 15.4224 15.4502 16.2995 16.6934 16.2995C17.2957 16.2995 17.8618 16.0962 18.2878 15.7269L21.9715 12.5323C22.3974 12.163 22.6319 11.672 22.6319 11.1498C22.6319 10.6275 22.3974 10.1365 21.9715 9.76719L18.2878 6.57266C17.8618 6.20336 17.2956 6 16.6934 6C15.4502 6 14.4388 6.8771 14.4388 7.95522V9.4106C12.5307 9.86517 10.7848 10.7471 9.36826 11.9756C7.19626 13.8592 6 16.3635 6 19.0273C6 21.6911 7.19626 24.1955 9.36831 26.079C11.5403 27.9626 14.4282 29 17.5 29C20.5718 29 23.4596 27.9627 25.6317 26.0791C27.8037 24.1955 29 21.6912 29 19.0273C29 17.9493 27.9886 17.0722 26.7453 17.0722ZM24.8846 25.431C22.9121 27.1416 20.2896 28.0836 17.5001 28.0836C14.7105 28.0836 12.0879 27.1416 10.1155 25.4311C8.14294 23.7206 7.05665 21.4464 7.05665 19.0273C7.05665 16.6083 8.14299 14.334 10.1155 12.6235C11.4933 11.4288 13.2127 10.5951 15.0881 10.2125C15.3268 10.1639 15.4955 9.97922 15.4955 9.76656V7.95522C15.4955 7.38238 16.0329 6.91632 16.6935 6.91632C17.0135 6.91632 17.3143 7.02435 17.5406 7.22057L21.2244 10.4151C21.4507 10.6113 21.5753 10.8722 21.5753 11.1497C21.5753 11.4271 21.4507 11.6881 21.2244 11.8842L17.5407 15.0788C17.3144 15.275 17.0135 15.3831 16.6936 15.3831C16.033 15.3831 15.4955 14.917 15.4955 14.3442V12.8881C15.4955 12.7389 15.4118 12.5991 15.2712 12.5133C15.1306 12.4276 14.9506 12.4063 14.7887 12.4568C11.5971 13.45 9.45269 16.0904 9.45269 19.0272C9.45269 22.8752 13.0628 26.0058 17.5001 26.0058C21.9374 26.0058 25.5475 22.8752 25.5475 19.0272C25.5475 18.4544 26.0849 17.9883 26.7455 17.9883C27.4061 17.9883 27.9435 18.4544 27.9435 19.0272C27.9435 21.4463 26.8571 23.7206 24.8846 25.431Z" fill="#8B5FFF"/>
<path d="M18.4414 13.1718C18.235 12.9929 17.9005 12.9929 17.6942 13.1718L17.6113 13.2436C17.405 13.4226 17.405 13.7127 17.6113 13.8916C17.7145 13.9811 17.8496 14.0258 17.9849 14.0258C18.1201 14.0258 18.2553 13.9811 18.3585 13.8916L18.4414 13.8198C18.6477 13.6408 18.6477 13.3507 18.4414 13.1718Z" fill="#8B5FFF"/>
<path d="M20.9774 10.976C20.771 10.7971 20.4365 10.7971 20.2302 10.976L18.8593 12.1647C18.653 12.3437 18.653 12.6338 18.8593 12.8127C18.9625 12.9022 19.0977 12.9469 19.2329 12.9469C19.3681 12.9469 19.5033 12.9022 19.6066 12.8127L20.9774 11.624C21.1837 11.445 21.1837 11.1549 20.9774 10.976Z" fill="#8B5FFF"/>
</g>
<defs>
<clipPath id="clip0_968_13">
<rect width="23" height="23" fill="white" transform="translate(6 6)"/>
</clipPath>
</defs>
</svg>
