<svg width="35" height="35" viewBox="0 0 35 35" fill="none" xmlns="http://www.w3.org/2000/svg">
<rect x="0.5" y="0.5" width="34" height="34" rx="9.5" fill="#F6F2FF" stroke="#8B5FFF"/>
<g clip-path="url(#clip0_968_26)">
<path d="M25.6318 12.2911C24.0559 10.9498 22.1199 10.0477 19.9834 9.65138L20.4114 9.2872C20.8388 8.92337 21.0742 8.4397 21.0742 7.92521C21.0742 7.41072 20.8388 6.927 20.4114 6.56322C19.529 5.81226 18.0932 5.81226 17.2108 6.56322L13.0253 10.1256C12.5978 10.4894 12.3624 10.9731 12.3624 11.4876C12.3624 12.0021 12.5978 12.4858 13.0253 12.8496L17.2108 16.412C17.6384 16.7758 18.2066 16.9762 18.8111 16.9762C19.4156 16.9762 19.9839 16.7758 20.4113 16.412C21.2138 15.7289 21.2864 14.6563 20.6291 13.9027C22.9408 14.8836 24.4739 16.9058 24.4739 19.2121C24.4739 22.485 21.3454 25.1477 17.5 25.1477C13.6547 25.1477 10.5262 22.485 10.5262 19.2121C10.5262 18.15 9.51102 17.286 8.26309 17.286C7.01517 17.286 6 18.15 6 19.2121C6 21.8266 7.1962 24.2845 9.36825 26.1332C11.5403 27.9818 14.4282 29 17.5 29C20.5718 29 23.4597 27.9818 25.6317 26.1332C27.8037 24.2846 29 21.8266 29 19.2122C29 16.5977 27.8039 14.1398 25.6318 12.2911ZM24.8703 25.4852C22.9016 27.1608 20.2842 28.0836 17.4999 28.0836C14.7157 28.0836 12.0982 27.1608 10.1295 25.4852C8.1608 23.8096 7.0766 21.5818 7.0766 19.2121C7.0766 18.6553 7.60883 18.2024 8.26304 18.2024C8.91724 18.2024 9.44948 18.6553 9.44942 19.2122C9.44942 22.9903 13.0608 26.0641 17.4999 26.0641C21.939 26.0641 25.5504 22.9903 25.5504 19.2122C25.5504 17.5809 24.8628 15.9996 23.6142 14.7595C22.3796 13.5333 20.6759 12.714 18.8169 12.4524C18.5864 12.42 18.3572 12.518 18.2503 12.6951C18.1434 12.8721 18.1831 13.0877 18.3485 13.2284L19.6498 14.336C20.1124 14.7298 20.1124 15.3704 19.6498 15.764C19.4257 15.9548 19.1278 16.0598 18.8109 16.0598C18.494 16.0598 18.1961 15.9548 17.972 15.764L13.7864 12.2016C13.5623 12.011 13.4389 11.7574 13.4389 11.4877C13.4389 11.218 13.5624 10.9644 13.7865 10.7737L17.972 7.21126C18.4347 6.81752 19.1873 6.81752 19.6499 7.21126C19.874 7.40196 19.9974 7.65554 19.9974 7.92525C19.9974 8.19492 19.874 8.44855 19.6499 8.63924L18.4858 9.62995C18.3404 9.75376 18.2906 9.93735 18.3574 10.1029C18.4243 10.2685 18.5963 10.3872 18.8005 10.4086C21.1121 10.6518 23.211 11.5268 24.8703 12.939C26.839 14.6146 27.9232 16.8424 27.9232 19.2121C27.9232 21.5818 26.839 23.8097 24.8703 25.4852Z" fill="#8B5FFF"/>
<path d="M17.3964 13.5343L17.3135 13.4638C17.1033 13.2849 16.7624 13.2849 16.5522 13.4638C16.342 13.6428 16.342 13.9329 16.5522 14.1118L16.6351 14.1823C16.7401 14.2718 16.878 14.3165 17.0157 14.3165C17.1535 14.3165 17.2913 14.2718 17.3964 14.1823C17.6066 14.0033 17.6066 13.7132 17.3964 13.5343Z" fill="#8B5FFF"/>
<path d="M16.1493 12.4766L14.7798 11.3109C14.5696 11.132 14.2287 11.1321 14.0185 11.3109C13.8083 11.4899 13.8083 11.78 14.0185 11.9589L15.388 13.1246C15.4932 13.2141 15.6309 13.2588 15.7687 13.2588C15.9064 13.2588 16.0442 13.214 16.1493 13.1246C16.3596 12.9456 16.3596 12.6555 16.1493 12.4766Z" fill="#8B5FFF"/>
</g>
<defs>
<clipPath id="clip0_968_26">
<rect width="23" height="23" fill="white" transform="translate(6 6)"/>
</clipPath>
</defs>
</svg>
